<?xml version="1.0" encoding="UTF-8" standalone="no"?>
<!-- Created with Inkscape (http://www.inkscape.org/) -->

<svg
   width="136.19737mm"
   height="139.49489mm"
   viewBox="0 0 136.19737 139.49489"
   version="1.1"
   id="svg5"
   xml:space="preserve"
   inkscape:version="1.2.2 (b0a8486541, 2022-12-01)"
   sodipodi:docname="icon.svg"
   xmlns:inkscape="http://www.inkscape.org/namespaces/inkscape"
   xmlns:sodipodi="http://sodipodi.sourceforge.net/DTD/sodipodi-0.dtd"
   xmlns:xlink="http://www.w3.org/1999/xlink"
   xmlns="http://www.w3.org/2000/svg"
   xmlns:svg="http://www.w3.org/2000/svg"><sodipodi:namedview
     id="namedview7"
     pagecolor="#ffffff"
     bordercolor="#000000"
     borderopacity="0.25"
     inkscape:showpageshadow="2"
     inkscape:pageopacity="0.0"
     inkscape:pagecheckerboard="0"
     inkscape:deskcolor="#d1d1d1"
     inkscape:document-units="mm"
     showgrid="false"
     showguides="true"
     inkscape:zoom="0.95245177"
     inkscape:cx="317.60138"
     inkscape:cy="350.67392"
     inkscape:window-width="1674"
     inkscape:window-height="1412"
     inkscape:window-x="44"
     inkscape:window-y="0"
     inkscape:window-maximized="0"
     inkscape:current-layer="layer1" /><defs
     id="defs2"><linearGradient
       inkscape:collect="always"
       id="linearGradient47327"><stop
         style="stop-color:#fcb845;stop-opacity:1;"
         offset="0"
         id="stop47323" /><stop
         style="stop-color:#fcb845;stop-opacity:0;"
         offset="1"
         id="stop47325" /></linearGradient><linearGradient
       inkscape:collect="always"
       id="linearGradient23308"><stop
         style="stop-color:#fdcf5a;stop-opacity:1;"
         offset="0"
         id="stop23304" /><stop
         style="stop-color:#fdcf5a;stop-opacity:0;"
         offset="1"
         id="stop23306" /></linearGradient><linearGradient
       inkscape:collect="always"
       id="linearGradient18399"><stop
         style="stop-color:#fa7f09;stop-opacity:1"
         offset="0"
         id="stop18395" /><stop
         style="stop-color:#e54f02;stop-opacity:1"
         offset="1"
         id="stop18397" /></linearGradient><linearGradient
       inkscape:collect="always"
       id="linearGradient18368"><stop
         style="stop-color:#fdc964;stop-opacity:1;"
         offset="0"
         id="stop18364" /><stop
         style="stop-color:#fdc964;stop-opacity:0;"
         offset="1"
         id="stop18366" /></linearGradient><linearGradient
       inkscape:collect="always"
       id="linearGradient11166"><stop
         style="stop-color:#661e00;stop-opacity:1;"
         offset="0"
         id="stop11162" /><stop
         style="stop-color:#661e00;stop-opacity:0;"
         offset="1"
         id="stop11164" /></linearGradient><linearGradient
       inkscape:collect="always"
       xlink:href="#linearGradient11166"
       id="linearGradient11168"
       x1="147.12228"
       y1="163.27217"
       x2="94.118347"
       y2="93.824539"
       gradientUnits="userSpaceOnUse" /><linearGradient
       inkscape:collect="always"
       xlink:href="#linearGradient18368"
       id="linearGradient18370"
       x1="60.57412"
       y1="69.343948"
       x2="135.38126"
       y2="162.60126"
       gradientUnits="userSpaceOnUse"
       gradientTransform="matrix(0.99691164,0,0,0.97795286,0.48971279,2.3243625)" /><linearGradient
       inkscape:collect="always"
       xlink:href="#linearGradient18399"
       id="linearGradient18401"
       x1="49.665871"
       y1="58.354866"
       x2="158.68161"
       y2="168.04962"
       gradientUnits="userSpaceOnUse"
       gradientTransform="matrix(0.9784309,0,0,0.97469832,2.4307137,1.48931)" /><linearGradient
       inkscape:collect="always"
       xlink:href="#linearGradient23308"
       id="linearGradient23310"
       x1="55.542252"
       y1="59.280212"
       x2="119.96108"
       y2="140.22385"
       gradientUnits="userSpaceOnUse" /><filter
       inkscape:collect="always"
       style="color-interpolation-filters:sRGB"
       id="filter23866"
       x="-0.01839413"
       y="-0.018602406"
       width="1.0367883"
       height="1.0372048"><feGaussianBlur
         inkscape:collect="always"
         stdDeviation="0.63090737"
         id="feGaussianBlur23868" /></filter><linearGradient
       inkscape:collect="always"
       xlink:href="#linearGradient23308"
       id="linearGradient23876"
       gradientUnits="userSpaceOnUse"
       x1="131.35574"
       y1="147.50565"
       x2="72.65062"
       y2="78.065872" /><linearGradient
       inkscape:collect="always"
       xlink:href="#linearGradient11166"
       id="linearGradient23880"
       gradientUnits="userSpaceOnUse"
       x1="63.451618"
       y1="59.306099"
       x2="104.64898"
       y2="112.97115"
       gradientTransform="matrix(0.8987823,0,0,0.88596657,10.603666,5.6913845)" /><filter
       inkscape:collect="always"
       style="color-interpolation-filters:sRGB"
       id="filter23890"
       x="-0.0098570433"
       y="-0.0098570434"
       width="1.0197141"
       height="1.0197141"><feGaussianBlur
         inkscape:collect="always"
         stdDeviation="0.30801774"
         id="feGaussianBlur23892" /></filter><filter
       inkscape:collect="always"
       style="color-interpolation-filters:sRGB"
       id="filter23894"
       x="-0.010370375"
       y="-0.010370375"
       width="1.0207407"
       height="1.0207408"><feGaussianBlur
         inkscape:collect="always"
         stdDeviation="0.27280572"
         id="feGaussianBlur23896" /></filter><linearGradient
       id="bg"
       x1="0"
       y1="0"
       x2="512"
       y2="512"
       gradientUnits="userSpaceOnUse"><stop
         stop-color="#FFA726"
         id="stop24073" /><stop
         offset="1"
         stop-color="#D95F00"
         id="stop24075" /></linearGradient><linearGradient
       id="inner"
       x1="70"
       y1="70"
       x2="442"
       y2="442"
       gradientUnits="userSpaceOnUse"><stop
         stop-color="#FF8F1F"
         id="stop24078" /><stop
         offset="1"
         stop-color="#F26A00"
         id="stop24080" /></linearGradient><filter
       id="shadow"
       x="-0.0086206897"
       y="-0.0086206897"
       width="1.0172414"
       height="1.0172414"><feDropShadow
         dx="0"
         dy="10"
         stdDeviation="12"
         flood-color="#000000"
         flood-opacity="0.35" /></filter><filter
       inkscape:collect="always"
       style="color-interpolation-filters:sRGB"
       id="filter43920"
       x="-0.053755246"
       y="-0.071952795"
       width="1.1161238"
       height="1.1388725"><feGaussianBlur
         inkscape:collect="always"
         stdDeviation="1.635544"
         id="feGaussianBlur43922" /></filter><linearGradient
       inkscape:collect="always"
       xlink:href="#linearGradient47327"
       id="linearGradient47329"
       x1="60.650593"
       y1="76.745026"
       x2="63.496765"
       y2="93.347702"
       gradientUnits="userSpaceOnUse" /></defs><g
     inkscape:label="Capa 1"
     inkscape:groupmode="layer"
     id="layer1"
     transform="translate(-36.662362,-48.09573)"><g
       id="g47415"
       transform="matrix(0.90862486,0,0,0.90862486,9.5725558,10.767937)"><path
         style="fill:#f57503;fill-opacity:1;stroke:none;stroke-width:1.0913;stop-color:#000000"
         d="m 62.164028,49.90979 c -14.12805,0 -25.501626,15.775559 -25.501626,30.112396 v 81.689834 c 0,14.33684 11.373576,25.87851 25.501626,25.87851 h 85.193342 c 14.12804,0 25.50218,-11.54167 25.50218,-25.87851 V 80.022186 c 0,-14.336837 -11.37414,-30.112396 -25.50218,-30.112396 z"
         id="path5062"
         sodipodi:nodetypes="sssssssss" /><path
         style="fill:url(#linearGradient23880);fill-opacity:1;stroke:none;stroke-width:0.973826;stop-color:#000000"
         d="m 66.475593,49.90979 c -12.698041,0 -22.92041,13.976618 -22.92041,26.678576 v 72.374464 c 0,12.70196 10.222369,22.92749 22.92041,22.92749 h 76.570267 c 12.69803,0 22.92091,-10.22553 22.92091,-22.92749 V 76.588366 c 0,-12.701958 -10.22288,-26.678576 -22.92091,-26.678576 z"
         id="path23878"
         sodipodi:nodetypes="sssssssss" /><path
         style="fill:url(#linearGradient11168);fill-opacity:1;stroke:none;stroke-width:1.0913;stop-color:#000000"
         d="m 62.164028,49.90979 c -14.12805,0 -25.501626,15.775559 -25.501626,30.112396 v 81.689834 c 0,14.33684 11.373576,25.87851 25.501626,25.87851 h 85.193342 c 14.12804,0 25.50218,-11.54167 25.50218,-25.87851 V 80.022186 c 0,-14.336837 -11.37414,-30.112396 -25.50218,-30.112396 z"
         id="path6477"
         sodipodi:nodetypes="sssssssss" /><path
         id="path46002"
         style="opacity:0.781341;fill:url(#linearGradient47329);fill-opacity:1;stroke:none;stroke-width:1.0913;stop-color:#000000"
         d="m 62.164164,49.909615 c -14.128036,0 -25.501802,15.775551 -25.501802,30.112374 v 81.690101 c 0,14.33683 11.373766,25.87853 25.501802,25.87853 h 85.193246 c 14.12803,0 25.50232,-11.5417 25.50232,-25.87853 V 80.021989 c 0,-14.336823 -11.37429,-30.112374 -25.50232,-30.112374 z m 3.897954,6.611483 h 76.894012 c 9.54416,0 17.22789,7.683729 17.22789,17.227889 V 150.643 c 0,9.54416 -7.68373,17.22737 -17.22789,17.22737 H 66.062118 c -9.54416,0 -17.227373,-7.68321 -17.227373,-17.22737 V 73.748987 c 0,-9.54416 7.683213,-17.227889 17.227373,-17.227889 z" /><path
         id="rect387"
         style="fill:#f56b04;fill-opacity:1;stroke:none;stroke-width:1;stroke-opacity:1;stop-color:#000000"
         d="m 65.188786,49.334973 c -13.041389,0 -23.540165,10.499294 -23.540165,23.540682 v 78.640675 c 0,13.04139 10.498776,23.54017 23.540165,23.54017 h 78.640674 c 13.04139,0 23.54069,-10.49878 23.54069,-23.54017 V 72.875655 c 0,-13.041388 -10.4993,-23.540682 -23.54069,-23.540682 z m 0.873332,7.186125 h 76.894012 c 9.54417,0 17.22789,7.68372 17.22789,17.227889 V 150.643 c 0,9.54417 -7.68372,17.22737 -17.22789,17.22737 H 66.062118 c -9.544169,0 -17.227373,-7.6832 -17.227373,-17.22737 V 73.748987 c 0,-9.544169 7.683204,-17.227889 17.227373,-17.227889 z" /><path
         style="fill:none;fill-opacity:1;stroke:url(#linearGradient23876);stroke-width:1;stroke-opacity:1;filter:url(#filter23894);stop-color:#000000"
         d="m 66.062118,56.521098 h 76.894012 c 9.54417,0 17.22789,7.68372 17.22789,17.227889 V 150.643 c 0,9.54417 -7.68372,17.22737 -17.22789,17.22737 H 66.062118 c -9.544169,0 -17.227373,-7.6832 -17.227373,-17.22737 V 73.748987 c 0,-9.544169 7.683204,-17.227889 17.227373,-17.227889 z"
         id="path23874" /><path
         style="fill:none;fill-opacity:1;stroke:url(#linearGradient23310);stroke-width:1;stroke-opacity:1;filter:url(#filter23890);stop-color:#000000"
         d="m 65.188786,49.334973 c -13.041389,0 -23.540165,10.499294 -23.540165,23.540682 v 78.640675 c 0,13.04139 10.498776,23.54017 23.540165,23.54017 h 78.640674 c 13.04139,0 23.54069,-10.49878 23.54069,-23.54017 V 72.875655 c 0,-13.041388 -10.4993,-23.540682 -23.54069,-23.540682 z"
         id="path23302" /><rect
         style="fill:url(#linearGradient18401);fill-opacity:1;stroke:none;stroke-width:0.850698;stop-color:#000000"
         id="rect441"
         width="107.64903"
         height="106.25745"
         x="50.697117"
         y="58.862099"
         ry="16.439947" /><rect
         style="mix-blend-mode:normal;fill:none;fill-opacity:1;stroke:url(#linearGradient18370);stroke-width:0.829416;stroke-opacity:1;filter:url(#filter23866);stop-color:#000000"
         id="rect5008"
         width="104.8642"
         height="103.69012"
         x="51.993221"
         y="61.021729"
         ry="14.556381"
         transform="matrix(0.99426968,0,0,0.9829789,0.64891586,1.0202903)" /><g
         id="g42876"
         style="opacity:0.716035;fill:#661e00;fill-opacity:1;stroke:#661e00;stroke-opacity:1;filter:url(#filter43920)"><g
           aria-label="sB"
           id="g42866"
           style="font-size:26.7982px;font-family:Uroob;-inkscape-font-specification:'Uroob, Normal';text-align:center;text-anchor:middle;fill:#661e00;fill-opacity:1;stroke:#661e00;stroke-width:0.593247;stroke-linecap:round;stroke-linejoin:round;stroke-dasharray:none;stroke-opacity:1;stop-color:#000000"
           transform="matrix(4.0641043,0,0,2.7965561,-1041.3993,-528.95409)"><path
             d="m 277.94061,227.56575 c 0.0175,-0.48851 -0.28349,-0.73276 -0.90287,-0.73276 h -1.63563 c -0.7502,0.009 -1.09041,0.51905 -1.02063,1.53095 0.0175,0.2617 0.0262,0.49723 0.0262,0.70659 0,0.65425 0.33149,0.98138 0.99446,0.98138 h 2.28989 c 0.7851,0 1.41755,0.27915 1.89733,0.83745 0.48851,0.55829 0.73276,1.22563 0.73276,2.00201 v 1.7534 c 0,0.80255 -0.2617,1.49169 -0.7851,2.06744 -0.5234,0.56702 -1.18201,0.85053 -1.97584,0.85053 h -2.87872 c -0.85488,0 -1.52222,-0.27479 -2.00201,-0.82436 -0.4885,-0.54957 -0.73276,-1.25181 -0.73276,-2.1067 h 2.25063 c -0.0175,0.30532 0.0567,0.52341 0.22244,0.65426 0.17447,0.12213 0.40128,0.18319 0.68043,0.18319 h 1.89733 c 0.66298,0 0.99446,-0.32713 0.99446,-0.98138 v -1.30851 c 0,-0.68042 -0.33148,-1.02063 -0.99446,-1.02063 h -2.15904 c -0.79382,0 -1.45244,-0.24862 -1.97584,-0.74585 -0.5234,-0.49723 -0.7851,-1.1384 -0.7851,-1.9235 v -1.91042 c 0,-0.78511 0.24426,-1.45681 0.73276,-2.0151 0.48851,-0.5583 1.12095,-0.83745 1.89733,-0.83745 h 2.81329 c 0.80256,0 1.44809,0.26606 1.93659,0.79819 0.48851,0.53213 0.73276,1.21255 0.73276,2.04127 z"
             id="path42862"
             style="fill:#661e00;fill-opacity:1;stroke:#661e00;stroke-width:0.593247;stroke-linecap:round;stroke-linejoin:round;stroke-dasharray:none;stroke-opacity:1"
             sodipodi:nodetypes="csccssscsscssccccssssssssssssscc" /><path
             d="m 291.34586,226.99001 q 0,1.4001 -0.9683,1.85808 1.36085,0.39255 1.36085,2.28988 v 3.57222 q 0,1.17766 -0.66734,2.00202 -0.66734,0.83744 -1.81882,0.83744 h -7.19678 v -16.7227 h 2.38148 v 0.0131 h 4.42275 q 1.17765,0 1.8319,0.86362 0.65426,0.86361 0.65426,2.06744 z m -2.32914,-3.08807 q 0,-0.98138 -1.12532,-0.98138 h -3.45445 v 5.02466 h 3.74232 q 0.40564,0 0.615,-0.31404 0.22245,-0.31404 0.22245,-0.69351 z m -0.60192,11.65878 q 0.99447,0 0.99447,-1.03372 v -3.51988 q 0,-0.98138 -1.12532,-0.98138 h -3.847 v 5.53498 z"
             id="path42864"
             style="fill:#661e00;fill-opacity:1;stroke:#661e00;stroke-width:0.593247;stroke-linecap:round;stroke-linejoin:round;stroke-dasharray:none;stroke-opacity:1" /></g><path
           style="color:#000000;fill:#661e00;fill-opacity:1;stroke:#661e00;stroke-linecap:round;stroke-linejoin:round;stroke-opacity:1;-inkscape-stroke:none"
           d="m 64.187033,140.72474 a 1.322915,1.322915 0 0 0 -1.867187,0.11914 1.322915,1.322915 0 0 0 0.11914,1.86718 l 5.486328,4.82813 -5.486328,4.82812 a 1.322915,1.322915 0 0 0 -0.11914,1.86719 1.322915,1.322915 0 0 0 1.867187,0.11914 l 6.615235,-5.82226 a 1.3230472,1.3230472 0 0 0 0,-1.98633 z"
           id="path42868" /><g
           id="g42874"
           transform="translate(-0.30124803,-0.52916667)"
           style="fill:#661e00;fill-opacity:1;stroke:#661e00;stroke-opacity:1"><path
             style="color:#000000;fill:#661e00;fill-opacity:1;stroke:#661e00;stroke-width:0.264583;stroke-opacity:1;-inkscape-stroke:none"
             d="m 74.992098,151.50783 h 7.408334 c 0.732896,0 1.322917,0.59002 1.322917,1.32291 0,0.7329 -0.590021,1.32292 -1.322917,1.32292 h -7.408334 c -0.732895,0 -1.322916,-0.59002 -1.322916,-1.32292 0,-0.73289 0.590021,-1.32291 1.322916,-1.32291 z"
             id="path42870" /><path
             style="color:#000000;fill:#661e00;fill-opacity:1;stroke:#661e00;stroke-opacity:1;-inkscape-stroke:none"
             d="m 74.992187,151.375 c -0.803896,0 -1.455078,0.65118 -1.455078,1.45508 0,0.80389 0.651182,1.45508 1.455078,1.45508 h 7.408204 c 0.803896,0 1.455078,-0.65119 1.455078,-1.45508 0,-0.8039 -0.651182,-1.45508 -1.455078,-1.45508 z m 0,0.26562 h 7.408204 c 0.661894,0 1.191406,0.52756 1.191406,1.18946 0,0.66189 -0.529512,1.1914 -1.191406,1.1914 h -7.408204 c -0.661893,0 -1.191406,-0.52951 -1.191406,-1.1914 0,-0.6619 0.529513,-1.18946 1.191406,-1.18946 z"
             id="path42872" /></g></g><g
         id="g42791"
         transform="translate(-0.42602904,-1.8072538)"><g
           aria-label="sB"
           id="text24256"
           style="font-size:26.7982px;font-family:Uroob;-inkscape-font-specification:'Uroob, Normal';text-align:center;text-anchor:middle;fill:#fbd8a2;fill-opacity:1;stroke:#fbd8a2;stroke-width:0.593247;stroke-linecap:round;stroke-linejoin:round;stroke-dasharray:none;stroke-opacity:1;stop-color:#000000"
           transform="matrix(4.0641043,0,0,2.7965561,-1041.3993,-528.95409)"><path
             d="m 277.94061,227.56575 c 0.0175,-0.48851 -0.28349,-0.73276 -0.90287,-0.73276 h -1.63563 c -0.7502,0.009 -1.09041,0.51905 -1.02063,1.53095 0.0175,0.2617 0.0262,0.49723 0.0262,0.70659 0,0.65425 0.33149,0.98138 0.99446,0.98138 h 2.28989 c 0.7851,0 1.41755,0.27915 1.89733,0.83745 0.48851,0.55829 0.73276,1.22563 0.73276,2.00201 v 1.7534 c 0,0.80255 -0.2617,1.49169 -0.7851,2.06744 -0.5234,0.56702 -1.18201,0.85053 -1.97584,0.85053 h -2.87872 c -0.85488,0 -1.52222,-0.27479 -2.00201,-0.82436 -0.4885,-0.54957 -0.73276,-1.25181 -0.73276,-2.1067 h 2.25063 c -0.0175,0.30532 0.0567,0.52341 0.22244,0.65426 0.17447,0.12213 0.40128,0.18319 0.68043,0.18319 h 1.89733 c 0.66298,0 0.99446,-0.32713 0.99446,-0.98138 v -1.30851 c 0,-0.68042 -0.33148,-1.02063 -0.99446,-1.02063 h -2.15904 c -0.79382,0 -1.45244,-0.24862 -1.97584,-0.74585 -0.5234,-0.49723 -0.7851,-1.1384 -0.7851,-1.9235 v -1.91042 c 0,-0.78511 0.24426,-1.45681 0.73276,-2.0151 0.48851,-0.5583 1.12095,-0.83745 1.89733,-0.83745 h 2.81329 c 0.80256,0 1.44809,0.26606 1.93659,0.79819 0.48851,0.53213 0.73276,1.21255 0.73276,2.04127 z"
             id="path24310"
             style="fill:#fbd8a2;fill-opacity:1;stroke:#fbd8a2;stroke-width:0.593247;stroke-linecap:round;stroke-linejoin:round;stroke-dasharray:none;stroke-opacity:1"
             sodipodi:nodetypes="csccssscsscssccccssssssssssssscc" /><path
             d="m 291.34586,226.99001 q 0,1.4001 -0.9683,1.85808 1.36085,0.39255 1.36085,2.28988 v 3.57222 q 0,1.17766 -0.66734,2.00202 -0.66734,0.83744 -1.81882,0.83744 h -7.19678 v -16.7227 h 2.38148 v 0.0131 h 4.42275 q 1.17765,0 1.8319,0.86362 0.65426,0.86361 0.65426,2.06744 z m -2.32914,-3.08807 q 0,-0.98138 -1.12532,-0.98138 h -3.45445 v 5.02466 h 3.74232 q 0.40564,0 0.615,-0.31404 0.22245,-0.31404 0.22245,-0.69351 z m -0.60192,11.65878 q 0.99447,0 0.99447,-1.03372 v -3.51988 q 0,-0.98138 -1.12532,-0.98138 h -3.847 v 5.53498 z"
             id="path24312"
             style="fill:#fbd8a2;fill-opacity:1;stroke:#fbd8a2;stroke-width:0.593247;stroke-linecap:round;stroke-linejoin:round;stroke-dasharray:none;stroke-opacity:1" /></g><path
           style="color:#000000;fill:#fbd8a2;stroke-linecap:round;stroke-linejoin:round;-inkscape-stroke:none"
           d="m 64.187033,140.72474 a 1.322915,1.322915 0 0 0 -1.867187,0.11914 1.322915,1.322915 0 0 0 0.11914,1.86718 l 5.486328,4.82813 -5.486328,4.82812 a 1.322915,1.322915 0 0 0 -0.11914,1.86719 1.322915,1.322915 0 0 0 1.867187,0.11914 l 6.615235,-5.82226 a 1.3230472,1.3230472 0 0 0 0,-1.98633 z"
           id="path24100" /><g
           id="rect24102"
           transform="translate(-0.30124803,-0.52916667)"><path
             style="color:#000000;fill:#f8ebcb;stroke-width:0.264583;-inkscape-stroke:none"
             d="m 74.992098,151.50783 h 7.408334 c 0.732896,0 1.322917,0.59002 1.322917,1.32291 0,0.7329 -0.590021,1.32292 -1.322917,1.32292 h -7.408334 c -0.732895,0 -1.322916,-0.59002 -1.322916,-1.32292 0,-0.73289 0.590021,-1.32291 1.322916,-1.32291 z"
             id="path27077" /><path
             style="color:#000000;fill:#fbd8a2;-inkscape-stroke:none"
             d="m 74.992187,151.375 c -0.803896,0 -1.455078,0.65118 -1.455078,1.45508 0,0.80389 0.651182,1.45508 1.455078,1.45508 h 7.408204 c 0.803896,0 1.455078,-0.65119 1.455078,-1.45508 0,-0.8039 -0.651182,-1.45508 -1.455078,-1.45508 z m 0,0.26562 h 7.408204 c 0.661894,0 1.191406,0.52756 1.191406,1.18946 0,0.66189 -0.529512,1.1914 -1.191406,1.1914 h -7.408204 c -0.661893,0 -1.191406,-0.52951 -1.191406,-1.1914 0,-0.6619 0.529513,-1.18946 1.191406,-1.18946 z"
             id="path27079" /></g></g></g></g></svg>
